name C:\Users\u0101727\Documents\MyRepositories\paper-ad\trackingsimulations_3d\Results\TrackSim\IK_c6.mot
datacolumns 32
datarows 5
range 3.45000000 3.51400000
endheader
time	pelvis_tilt	pelvis_list	pelvis_rotation	pelvis_tx	pelvis_ty	pelvis_tz	hip_flexion_l	hip_adduction_l	hip_rotation_l	hip_flexion_r	hip_adduction_r	hip_rotation_r	knee_angle_l	knee_angle_r	ankle_angle_l	ankle_angle_r	subtalar_angle_l	subtalar_angle_r	lumbar_extension	lumbar_bending	lumbar_rotation	arm_flex_l	arm_add_l	arm_rot_l	arm_flex_r	arm_add_r	arm_rot_r	elbow_flex_l	elbow_flex_r	pro_sup_l	pro_sup_r	
          3.45000000	         -2.17283899	          4.29806180	          4.39824704	         -0.50818149	          0.84278282	         -0.22858360	         16.94668567	          9.26592987	          2.95529126	         16.09941494	         -1.98948054	         -2.07331270	        -24.64208118	        -50.30702189	          5.81634915	        -12.53337358	          6.36008067	        -13.53401508	         -4.75715332	         -4.00653359	         -3.28359593	         -1.79080482	        -15.70431616	         17.85867829	         -4.77307464	        -16.93762991	         12.12265493	         21.37198673	         23.55181544	         86.51662706	         86.51662706	
          3.46600000	         -2.20040069	          4.21198238	          4.46468981	         -0.48936264	          0.85030953	         -0.22935698	         14.85911149	          9.17418751	          3.53662102	         18.66732181	         -2.15286813	         -1.84141111	        -23.21914633	        -51.13265685	          6.59283340	        -11.39411893	          6.13470547	        -12.70856749	         -4.85711679	         -4.00455172	         -3.93558199	         -1.61636404	        -15.92801724	         17.28562722	         -5.01074328	        -16.81384158	         12.40407161	         22.62998354	         22.98569965	         86.51662706	         86.51662706	
          3.48200000	         -2.17572123	          3.95498388	          4.42987306	         -0.47057793	          0.85750418	         -0.22996418	         12.79570820	          8.85073921	          4.01289446	         21.03139338	         -2.14139283	         -1.76907121	        -21.89957620	        -51.49516599	          7.39848532	         -9.43470196	          6.00402633	        -11.66960468	         -4.97680181	         -3.77715366	         -4.45122306	         -1.42219758	        -16.11047399	         16.78682013	         -5.31647917	        -16.74679526	         12.46058301	         23.90142537	         22.52019478	         86.51662706	         86.51662706	
          3.49800000	         -2.11679324	          3.55507877	          4.41359018	         -0.45181205	          0.86425032	         -0.23055240	         10.79295613	          8.36969215	          4.49409657	         23.19447018	         -1.99728069	         -1.89968763	        -20.73369744	        -51.45526295	          8.24228985	         -7.70475276	          5.89419738	        -10.75340246	         -5.10938335	         -3.35723721	         -4.94597036	         -1.20986580	        -16.27445801	         16.39077529	         -5.70021008	        -16.70922851	         12.21864617	         25.16871935	         22.18887082	         86.51662706	         86.51662706	
          3.51400000	         -2.03450059	          3.08968718	          4.45201666	         -0.43304394	          0.87046747	         -0.23115796	          8.85206720	          7.81965087	          4.99411601	         25.17192435	         -1.81511918	         -2.19676706	        -19.71441572	        -51.09896275	          9.11264780	         -6.37598715	          5.77966060	        -10.00220894	         -5.25604142	         -2.83924306	         -5.45801472	         -0.98722923	        -16.44484494	         16.08866011	         -6.14007417	        -16.67567966	         11.72260332	         26.42630178	         21.96383860	         86.51662706	         86.51662706	
